<?xml version="1.0" encoding="UTF-8" standalone="no"?>
<svg
   width="450"
   height="270"
   viewBox="0 0 1499.9999 899.99996"
   version="1.1"
   id="svg10"
   sodipodi:docname="logo.svg"
   inkscape:version="1.2.2 (732a01da63, 2022-12-09)"
   xmlns:inkscape="http://www.inkscape.org/namespaces/inkscape"
   xmlns:sodipodi="http://sodipodi.sourceforge.net/DTD/sodipodi-0.dtd"
   xmlns="http://www.w3.org/2000/svg"
   xmlns:svg="http://www.w3.org/2000/svg">
  <defs
     id="defs14" />
  <sodipodi:namedview
     id="namedview12"
     pagecolor="#ffffff"
     bordercolor="#000000"
     borderopacity="0.25"
     inkscape:showpageshadow="2"
     inkscape:pageopacity="0.0"
     inkscape:pagecheckerboard="0"
     inkscape:deskcolor="#d1d1d1"
     showgrid="false"
     inkscape:zoom="3.556"
     inkscape:cx="250.14061"
     inkscape:cy="250"
     inkscape:window-width="3840"
     inkscape:window-height="2036"
     inkscape:window-x="-12"
     inkscape:window-y="-12"
     inkscape:window-maximized="1"
     inkscape:current-layer="svg10"
     showguides="false" />
  <g
     id="g1802"
     transform="matrix(1.1995201,0,0,1.1970507,-22.790882,-25.29752)">
    <path
       style="fill:#dca201"
       d="m 1038,446.58179 c 0,-95.38002 -0.2731,-174.13002 -0.607,-175 C 1036.8478,270.16106 1029.9241,270 969.39301,270 H 902 v -38.00267 -38.00266 l 183.75,0.25266 183.75,0.25267 v 37.5 37.5 l -70.75,0.25671 -70.75,0.25671 V 445.00671 620 h -45 -45 z M 210.22006,605.80902 c 1.25397,-1.75504 2.82323,-3.89254 3.48725,-4.75 1.24913,-1.61303 9.65139,-13.26861 12.29269,-17.05237 0.825,-1.18185 5.64982,-7.85432 10.72183,-14.82773 5.07201,-6.97341 10.76465,-14.92892 12.65032,-17.67892 1.88566,-2.75 4.26084,-5.99632 5.27816,-7.21403 1.01733,-1.21772 3.42469,-4.49726 5.34969,-7.28785 1.925,-2.7906 5.75,-8.19611 8.5,-12.01224 2.75,-3.81614 7.25,-10.10926 10,-13.98472 2.75,-3.87546 6.01195,-8.27363 7.24878,-9.77372 1.23683,-1.50009 2.24933,-3.25244 2.25,-3.89411 6.7e-4,-0.64166 0.38753,-1.31666 0.85968,-1.5 0.98959,-0.38425 20.05436,-26.44257 20.83584,-28.47908 0.28582,-0.74484 1.03403,-1.34702 1.66269,-1.33818 0.62865,0.009 6.17837,7.09633 12.3327,15.75 6.15433,8.65366 15.74139,22.03393 21.30457,29.73393 5.56318,7.7 10.87782,15.058 11.8103,16.35111 0.93249,1.29311 3.07375,4.21811 4.75836,6.5 1.6846,2.28189 9.33065,12.92389 16.99123,23.64889 7.66057,10.725 14.29264,19.95 14.73794,20.5 1.2959,1.60059 20.20866,27.87271 21.05648,29.25 0.61367,0.99691 -20.20461,1.25 -102.81949,1.25 H 207.94013 Z M 651.30481,589.75 c -7.10575,-10.0375 -14.91874,-21.17209 -17.36218,-24.74353 -2.44345,-3.57144 -4.80287,-6.94644 -5.24316,-7.5 -0.95879,-1.20543 -23.09023,-32.64374 -45.62756,-64.81517 C 578.90736,486.74652 573.925,479.67505 572,476.97693 570.075,474.2788 566.925,469.78918 565,467 c -1.925,-2.78918 -5.075,-7.26075 -7,-9.93682 -1.925,-2.67607 -4.07047,-5.69754 -4.76771,-6.71438 -0.69724,-1.01684 -3.79181,-5.42577 -6.87682,-9.79762 -3.08502,-4.37185 -6.00205,-9.31888 -6.4823,-10.9934 C 539.39293,427.88326 539,378.24773 539,319.2566 V 212 h 63.5 63.5 v 198 c 0,114.6548 -0.37372,198 -0.88782,198 -0.4883,0 -6.70162,-8.2125 -13.80737,-18.25 z"
       id="path1806" />
    <path
       style="fill:#740e69"
       d="M 467.29984,771.13789 C 449.31715,764.92432 439.67489,749.16932 439.67489,726 c 0,-16.08481 3.49058,-26.06527 12.41715,-35.5038 9.24946,-9.77995 22.79518,-13.96058 37.7172,-11.6407 13.83349,2.15064 22.21845,7.50993 27.13108,17.34098 4.43409,8.87341 4.22306,9.81358 -2.19032,9.75813 l -5.25,-0.0454 -2.5,-5.2046 c -6.59766,-13.73528 -28.67184,-17.92333 -41.80534,-7.93157 -5.86169,4.45948 -6.73185,5.51389 -9.75667,11.82251 -3.51126,7.32314 -5.02619,19.44832 -3.64774,29.19564 1.94301,13.73944 7.26678,22.3312 16.87998,27.24172 4.18724,2.13888 6.16013,2.46593 14.82977,2.45836 8.3141,-0.007 10.67436,-0.37114 14,-2.15841 4.96713,-2.66945 8.64285,-6.56182 11.41031,-12.08286 2.03364,-4.05708 2.33511,-4.25 6.6414,-4.25 5.52712,0 6.31568,1.44026 4.04453,7.38717 -3.3298,8.71897 -11.68923,15.91735 -22.18071,19.10002 -7.04464,2.13704 -23.47137,1.94652 -30.11569,-0.3493 z m 122,0.0442 C 578.47057,767.34825 570.80316,759.61379 567.31009,749 565.71801,744.16244 565.5,739.70602 565.5,712 v -31.5 l 5.687,-0.29802 5.68699,-0.29803 0.31301,32.29803 c 0.3028,31.24526 0.38793,32.46059 2.61185,37.28556 3.02328,6.55927 5.64657,9.27983 11.70115,12.13504 5.47652,2.5826 14.15968,3.15522 20.62267,1.36 4.93331,-1.37033 12.24619,-8.03146 14.50936,-13.21623 1.65083,-3.78196 1.91936,-7.95632 2.36512,-36.76635 L 629.5,680.5 h 5.5 5.5 v 33 33 l -2.82707,6.11743 c -3.52014,7.61716 -9.38004,13.44501 -17.17293,17.079 -5.11105,2.3834 -7.48158,2.8371 -16,3.06227 -7.6801,0.20301 -11.20639,-0.16276 -15.20016,-1.57665 z M 693.25,771.33772 C 692.27572,770.94459 692,760.80435 692,725.36676 v -45.46657 l 5.75,0.29991 5.75,0.2999 0.27034,20.76713 0.27034,20.76713 25.22966,-0.26713 L 754.5,721.5 754.77029,700.75 755.04058,680 H 760.52029 766 v 45.39301 C 766,775.60857 766.50503,772 759.47723,772 c -1.84756,0 -3.7158,-0.5625 -4.15165,-1.25 -0.43585,-0.6875 -0.7999,-9.8 -0.80902,-20.25 l -0.0166,-19 -25.25,-0.26717 -25.25,-0.26717 v 19.91018 c 0,17.23299 -0.21269,19.9918 -1.58179,20.51717 -1.84494,0.70797 -7.35906,0.67472 -9.16821,-0.0553 z m 125.86195,-0.70283 c -0.81524,-0.9823 -1.0599,-13.81191 -0.87245,-45.75 L 818.5,680.5 l 5.75,-0.2999 5.75,-0.29991 V 700.4501 721 l 7.75,-0.0282 c 13.00486,-0.0473 14.53067,-1.24201 28.75593,-22.51647 L 878.51187,680.5 l 6.24406,-0.29772 c 4.37578,-0.20863 6.24407,0.0636 6.24407,0.9098 0,1.48433 -18.08272,29.54788 -23.25715,36.09403 -2.06665,2.61451 -5.41189,5.60238 -7.43385,6.63971 l -3.6763,1.88605 3.74881,1.77893 c 2.06185,0.97841 5.75607,4.07624 8.20937,6.88406 5.44364,6.23029 24.48093,35.67993 23.78876,36.79989 -0.57249,0.92631 -7.83924,1.05704 -11.03925,0.1986 -1.42034,-0.38102 -5.62469,-5.99464 -12.28213,-16.39901 C 854.76562,732.65753 852.10526,730.62806 837,730.53853 l -6.5,-0.0385 -0.27182,19.95447 c -0.19659,14.4314 -0.61176,20.17042 -1.5,20.73469 -2.01695,1.28129 -8.3981,0.91349 -9.61623,-0.55427 z M 741.74679,593.24072 713.99358,565.5 l 0.003,-82.66467 0.003,-82.66468 27.75,-27.08125 27.75,-27.08126 35.25,-0.004 L 840,346 v 27.5 27.5 h -17 -17 v 82 82 h 17 17 v 28 28 l -35.25,-0.009 -35.25,-0.009 -27.75321,-27.74072 z m 112.91988,27.09261 C 854.3,619.96667 854,607.37705 854,592.35641 V 565.04615 L 871.75,564.77307 889.5,564.5 V 483 401.5 L 871.75,401.22693 854,400.95385 V 373.47693 346 h 36.01626 36.01627 L 953.51626,373.14254 981,400.28509 v 82.61415 82.61415 L 953.24342,593.2567 925.48684,621 h -35.07675 c -19.29222,0 -35.37676,-0.3 -35.74342,-0.66667 z M 19,608.4767 c 0,-0.28782 5.472839,-8.27532 12.161864,-17.75 C 47.017604,568.2678 145.56946,428.94753 185.88396,372 c 17.32642,-24.475 36.62807,-51.80909 42.89254,-60.74242 6.26448,-8.93333 11.6932,-16.42984 12.06383,-16.6589 0.53462,-0.33041 33.2096,45.44371 60.01412,84.07333 l 4.35445,6.27546 -3.45351,4.77626 c -5.60178,7.74738 -72.25998,100.19988 -96.0921,133.27627 -12.08668,16.775 -27.67184,38.375 -34.63369,48 -6.96184,9.625 -15.98236,22.1125 -20.0456,27.75 L 143.59631,609 H 81.298154 C 47.034169,609 19,608.76451 19,608.4767 Z M 411.49492,517.87511 C 376.29771,467.75643 339.99489,416.11893 330.82198,403.12511 273.47707,321.89366 249.3941,287.56437 248.6267,285.9591 c -0.83033,-1.73692 4.87678,-10.52116 31.4838,-48.4591 1.92865,-2.75 10.1891,-14.675 18.35655,-26.5 8.16744,-11.825 14.93623,-21.62014 15.04174,-21.76698 0.17719,-0.2466 26.44616,37.5722 165.50045,238.26698 28.19959,40.7 67.8587,97.91147 88.13137,127.13661 C 587.41327,583.86174 604,608.04924 604,608.38661 604,608.72397 575.08521,609 539.74492,609 H 475.48984 Z M 590,190.55442 c -15.91747,-4.48073 -28.17467,-14.64867 -34.92303,-28.97035 -13.9668,-29.641 2.44688,-64.7783 34.42303,-73.6905 7.87199,-2.194034 21.74752,-1.74827 29.69044,0.953831 39.97733,13.599879 49.41224,64.650529 16.898,91.432029 C 623.96981,190.26136 604.43226,194.61708 590,190.55442 Z M 599,176.5 V 168 h -7.52568 -7.52568 l 1.64373,3.25 c 2.64072,5.22124 6.40379,9.77668 9.77346,11.8314 1.72379,1.05112 3.24667,1.91281 3.38417,1.91486 0.1375,0.002 0.25,-3.82126 0.25,-8.49626 z m 11.7388,6.35242 C 613.97709,180.85104 621,171.40313 621,169.04804 621,168.41048 618.06251,168 613.5,168 H 606 v 8.5 c 0,4.675 0.28438,8.5 0.63197,8.5 0.34758,0 2.19565,-0.96641 4.10683,-2.14758 z m -31.01496,-8.65151 -3.22384,-6.18475 -4.94617,-0.008 -4.94616,-0.008 3.44616,3.63 c 3.26319,3.43726 11.96213,9.68737 12.59797,9.05153 0.16274,-0.16273 -1.15485,-3.07901 -2.92796,-6.48062 z M 635.94617,171.56304 639.39233,168 h -5.11811 -5.11812 l -3.07805,6.15972 C 624.38512,177.54757 623,180.46841 623,180.65048 c 0,0.97836 9.99907,-6.04039 12.94617,-9.08744 z M 573.6305,158.25 c -0.33146,-1.5125 -0.89899,-5.5625 -1.26118,-9 L 571.71079,143 h -7.49132 -7.49132 l 0.62922,4.59062 c 0.34606,2.52484 1.50693,6.57484 2.57969,9 L 561.88754,161 h 6.17281 6.1728 z M 599,152 v -9 h -10 -10 v 2.66809 c 0,1.46744 0.49619,5.51744 1.10265,9 L 581.20531,161 H 590.10265 599 Z m 25.37929,7.25 c 0.28274,-0.9625 0.78417,-3.55 1.11429,-5.75 0.33012,-2.2 0.82451,-5.4625 1.09863,-7.25 L 627.09063,143 H 616.54531 606 v 9 9 h 8.93261 c 7.64475,0 9.00673,-0.25231 9.44668,-1.75 z m 21.41476,-3.5 c 1.06576,-2.8875 2.24348,-6.9375 2.61716,-9 l 0.67942,-3.75 h -7.52626 c -8.46804,0 -7.85884,-0.65787 -9.04,9.76218 -0.32807,2.8942 -0.85341,5.9317 -1.16742,6.75 -0.46952,1.22356 0.58982,1.48782 5.96421,1.48782 h 6.53514 z m -73.44633,-25.5 c 0.34795,-3.1625 0.92094,-7.4375 1.2733,-9.5 l 0.64066,-3.75 h -6.0169 c -5.81011,0 -6.06909,0.11169 -7.53553,3.25 -1.92297,4.11531 -3.69643,10.57964 -3.70367,13.5 -0.005,2.12997 0.38693,2.25 7.35196,2.25 h 7.35755 z M 599,126.5 V 117 h -8.82715 -8.82715 l -1.17285,6.3653 C 579.52778,126.86621 579,131.14121 579,132.8653 V 136 h 10 10 z m 27.54823,3.75 c -0.37522,-3.1625 -1.11942,-7.4375 -1.65377,-9.5 L 623.92291,117 H 614.96146 606 v 9.5 9.5 h 10.61522 10.61523 z m 21.96081,2.5 c -1.0024,-5.01308 -3.66239,-13.10951 -4.7638,-14.5 -0.59476,-0.75086 -3.3837,-1.25 -6.98432,-1.25 -5.73982,0 -5.96693,0.0955 -5.35194,2.25 0.35323,1.2375 0.88458,4.5 1.18078,7.25 1.08789,10.10046 0.51848,9.5 9.00875,9.5 h 7.5604 z M 579.62272,103.99192 C 581.34021,100.69636 582.42986,98 582.04416,98 c -1.34277,0 -9.56413,5.8828 -12.48125,8.93097 L 566.62582,110 l 4.93709,-0.008 4.93709,-0.008 3.12272,-5.99192 z M 599,102 c 0,-4.783226 -0.41108,-8 -1.02234,-8 -1.80943,0 -9.43888,7.69664 -11.80809,11.91207 L 583.87203,110 H 591.43602 599 Z m 22,7.17144 c 0,-1.77362 -6.41016,-10.382499 -9.46672,-12.713855 C 606.47939,92.602793 606,93.08297 606,102 v 8 h 7.5 c 4.125,0 7.5,-0.37285 7.5,-0.82856 z m 15.63785,-1.27809 C 634.97158,105.51442 625.2854,98 623.88519,98 c -0.50269,0 0.44898,2.7 2.11481,6 l 3.02879,6 h 4.54231 c 4.41925,0 4.50233,-0.0571 3.06675,-2.10665 z M 522,147.44768 c 0,-0.31854 0.46583,-1.44958 1.03518,-2.51342 C 524.03373,143.06845 523.61457,143 511.19017,143 c -14.53901,0 -14.13623,0.18567 -18.43925,-8.5 -9.37494,-18.9234 -3.41361,-38.745915 14.65624,-48.734622 5.4883,-3.033843 6.09817,-3.73776 8.60113,-9.927462 3.07196,-7.596814 5.69373,-11.122693 11.74212,-15.791324 6.23164,-4.810081 11.50117,-6.417518 21.57179,-6.580342 l 8.8222,-0.14264 2.92609,-5.123387 c 4.8464,-8.485744 14.23837,-17.716115 21.95363,-21.575899 14.098,-7.052943 32.38692,-7.333925 46.47588,-0.714033 10.37996,4.877169 18.41405,12.822683 24.48737,24.217386 l 3.07664,5.772378 8.718,-0.01913 c 29.94285,-0.0657 52.84475,24.272459 50.92535,54.119075 -0.65112,10.12497 -3.1173,17.24937 -9.02307,26.06619 L 703.37474,142.5 682.68737,142.77029 662,143.04058 V 139.52029 136 h 18.864 18.864 l 2.58929,-3.75 c 17.19233,-24.89921 5.30634,-59.418455 -23.55221,-68.400246 -6.29762,-1.960042 -16.74453,-2.387549 -22.97525,-0.940192 -3.64043,0.845649 -3.73228,0.793509 -4.88652,-2.773856 -3.50962,-10.847073 -12.77552,-22.571221 -21.66047,-27.407019 -9.97483,-5.428983 -24.9312,-7.180488 -35.31134,-4.135228 -12.84961,3.769738 -24.39108,13.958661 -29.54313,26.080973 -2.67118,6.285028 -2.86268,6.480706 -5.77282,5.898679 -14.3804,-2.876081 -22.19887,-1.120227 -30.07277,6.753679 -4.83938,4.839379 -6.36872,7.691125 -9.17092,17.10092 -0.68176,2.289346 -2.39784,3.70662 -7.87043,6.5 -7.93199,4.048737 -13.4911,10.39211 -15.54916,17.74278 -1.84537,6.59101 -0.73835,16.11457 2.58238,22.21584 L 501.31786,136 h 11.34107 C 518.89652,136 524,135.74542 524,135.43426 c 0,-0.31116 -0.46583,-1.43616 -1.03518,-2.5 C 522.39547,131.87042 522.31623,131 522.78874,131 c 1.12712,0 17.48544,7.02029 18.47722,7.92963 0.42128,0.38626 -2.05372,1.87313 -5.5,3.30414 -3.44628,1.43102 -7.95346,3.31988 -10.01596,4.19746 -2.0625,0.87759 -3.75,1.33499 -3.75,1.01645 z"
       id="path1804" />
  </g>
</svg>
